<?xml version="1.0" encoding="UTF-8" standalone="no"?>
<!-- Created with Inkscape (http://www.inkscape.org/) -->

<svg
   xmlns:dc="http://purl.org/dc/elements/1.1/"
   xmlns:cc="http://creativecommons.org/ns#"
   xmlns:rdf="http://www.w3.org/1999/02/22-rdf-syntax-ns#"
   xmlns:svg="http://www.w3.org/2000/svg"
   xmlns="http://www.w3.org/2000/svg"
   xmlns:sodipodi="http://sodipodi.sourceforge.net/DTD/sodipodi-0.dtd"
   xmlns:inkscape="http://www.inkscape.org/namespaces/inkscape"
   width="155"
   height="155"
   viewBox="0 0 155 155"
   id="svg4379"
   version="1.1"
   inkscape:version="0.91 r13725"
   sodipodi:docname="api-and-scraping2.svg">
  <defs
     id="defs4381">
    <marker
       inkscape:stockid="Arrow2Mend"
       orient="auto"
       refY="0"
       refX="0"
       id="Arrow2Mend-3"
       style="overflow:visible"
       inkscape:isstock="true">
      <path
         id="path4536-6"
         style="fill:#000080;fill-opacity:1;fill-rule:evenodd;stroke:#000080;stroke-width:0.625;stroke-linejoin:round;stroke-opacity:1"
         d="M 8.7185878,4.0337352 -2.2072895,0.01601326 8.7185884,-4.0017078 c -1.7454984,2.3720609 -1.7354408,5.6174519 -6e-7,8.035443 z"
         transform="scale(-0.6,-0.6)"
         inkscape:connector-curvature="0" />
    </marker>
  </defs>
  <sodipodi:namedview
     id="base"
     pagecolor="#ffffff"
     bordercolor="#666666"
     borderopacity="1.0"
     inkscape:pageopacity="0.0"
     inkscape:pageshadow="2"
     inkscape:zoom="4.3870968"
     inkscape:cx="86.617646"
     inkscape:cy="80.26998"
     inkscape:document-units="px"
     inkscape:current-layer="layer1"
     showgrid="false"
     units="px"
     inkscape:window-width="1600"
     inkscape:window-height="872"
     inkscape:window-x="179"
     inkscape:window-y="1080"
     inkscape:window-maximized="1" />
  <metadata
     id="metadata4384">
    <rdf:RDF>
      <cc:Work
         rdf:about="">
        <dc:format>image/svg+xml</dc:format>
        <dc:type
           rdf:resource="http://purl.org/dc/dcmitype/StillImage" />
        <dc:title />
      </cc:Work>
    </rdf:RDF>
  </metadata>
  <g
     inkscape:label="Layer 1"
     inkscape:groupmode="layer"
     id="layer1"
     transform="translate(0,-897.36216)">
    <path
       inkscape:connector-curvature="0"
       id="path4147-1-9-8-8-7"
       d="M 151.60562,974.86216 A 74.105621,74.105621 0 0 1 77.499997,1048.9678 74.105621,74.105621 0 0 1 3.3943756,974.86216 74.105621,74.105621 0 0 1 77.499997,900.75654 74.105621,74.105621 0 0 1 151.60562,974.86216 Z"
       style="opacity:1;fill:none;fill-opacity:1;fill-rule:nonzero;stroke:#3a5a79;stroke-width:1.78875649;stroke-linecap:round;stroke-linejoin:round;stroke-miterlimit:4;stroke-dasharray:none;stroke-dashoffset:0;stroke-opacity:1" />
    <path
       sodipodi:nodetypes="ccccccccccccccccccccccccccccccccc"
       inkscape:connector-curvature="0"
       id="path6575-8"
       d="m 64.607902,969.25062 -2.191352,6.96074 -9.667656,-0.12893 -2.162526,-6.74856 -3.313448,-1.31326 -6.552564,3.21209 -6.572311,-7.09122 3.388888,-6.10714 -1.458453,-3.14148 -6.930582,-2.28488 0.25903,-9.66505 6.777097,-2.07147 1.35772,-3.29549 -3.123553,-6.59519 7.179075,-6.47624 6.172078,3.41015 3.231531,-1.56403 2.191352,-6.96072 9.667656,0.1289 2.162535,6.74858 3.313439,1.31325 6.552564,-3.21208 6.57232,7.0912 -3.388897,6.10714 1.458462,3.14149 6.930582,2.28488 -0.25903,9.66505 -6.777097,2.07147 -1.35772,3.29548 3.123544,6.5952 -7.179067,6.47624 -6.172086,-3.41016 z"
       style="fill:none;fill-rule:evenodd;stroke:#3a5a79;stroke-width:1.34156728;stroke-linecap:butt;stroke-linejoin:round;stroke-miterlimit:4;stroke-dasharray:none;stroke-opacity:1" />
    <path
       inkscape:connector-curvature="0"
       id="path6622"
       d="M 71.596949,947.80062 A 13.792542,13.792542 0 0 1 57.804411,961.59316 13.792542,13.792542 0 0 1 44.011865,947.80062 13.792542,13.792542 0 0 1 57.804411,934.00807 13.792542,13.792542 0 0 1 71.596949,947.80062 Z"
       style="opacity:1;fill:none;fill-opacity:1;fill-rule:nonzero;stroke:#3a5a79;stroke-width:1.34156728;stroke-linecap:round;stroke-linejoin:round;stroke-miterlimit:4;stroke-dasharray:none;stroke-dashoffset:0;stroke-opacity:1" />
    <path
       inkscape:connector-curvature="0"
       id="path6622-4"
       d="M 68.745403,947.80062 A 10.94099,10.94099 0 0 1 57.804411,958.74161 10.94099,10.94099 0 0 1 46.86342,947.80062 10.94099,10.94099 0 0 1 57.804411,936.85963 10.94099,10.94099 0 0 1 68.745403,947.80062 Z"
       style="opacity:1;fill:none;fill-opacity:1;fill-rule:nonzero;stroke:#3a5a79;stroke-width:1.34156728;stroke-linecap:round;stroke-linejoin:round;stroke-miterlimit:4;stroke-dasharray:none;stroke-dashoffset:0;stroke-opacity:1" />
    <path
       inkscape:connector-curvature="0"
       id="path6624"
       d="m 61.778429,947.80062 a 3.9740161,3.9740161 0 0 1 -3.974018,3.97402 3.9740161,3.9740161 0 0 1 -3.974017,-3.97402 3.9740161,3.9740161 0 0 1 3.974017,-3.97402 3.9740161,3.9740161 0 0 1 3.974018,3.97402 z"
       style="opacity:1;fill:none;fill-opacity:1;fill-rule:nonzero;stroke:#3a5a79;stroke-width:1.34156728;stroke-linecap:round;stroke-linejoin:round;stroke-miterlimit:4;stroke-dasharray:none;stroke-dashoffset:0;stroke-opacity:1" />
    <path
       d="m 67.319245,986.2502 q 0,-1.33195 0.764237,-2.32546 0.775158,-1.00444 2.303632,-2.00887 -0.851582,-1.08084 -1.266448,-1.92151 -0.414875,-0.85158 -0.414875,-1.74683 0,-1.8451 1.059015,-2.83861 1.069936,-1.00442 2.936861,-1.00442 1.724996,0 2.805852,0.9935 1.080856,0.99351 1.080856,2.39098 0,1.06993 -0.578645,1.85601 -0.567715,0.77516 -1.692244,1.59399 l -1.190024,0.87341 3.712019,4.46534 q 0.447627,-0.70964 0.698733,-1.57215 0.251105,-0.86249 0.251105,-1.82325 l 1.921518,0 q 0,1.43022 -0.425795,2.653 -0.425787,1.22278 -1.233697,2.19446 l 2.019775,2.44557 -0.02182,0.0546 -2.500154,0 -0.927998,-1.11361 q -0.873423,0.65506 -1.932438,1.00443 -1.059015,0.33845 -2.194455,0.33845 -2.369146,0 -3.777523,-1.25554 -1.397466,-1.25553 -1.397466,-3.25348 z m 5.174989,2.82769 q 0.786078,0 1.550315,-0.26202 0.764237,-0.27295 1.441138,-0.77516 l -3.941292,-4.7492 -0.436707,0.31661 q -0.993511,0.7424 -1.321041,1.4193 -0.316619,0.6769 -0.316619,1.22278 0,1.2337 0.775157,2.03069 0.775158,0.797 2.249049,0.797 z m -1.637661,-10.8522 q 0,0.57864 0.294779,1.21187 0.294778,0.62231 0.884334,1.36471 l 1.506643,-1.03718 q 0.622308,-0.41488 0.84067,-0.89525 0.229265,-0.4913 0.229265,-1.08086 0,-0.66597 -0.534963,-1.1791 -0.524052,-0.51315 -1.375634,-0.51315 -0.884335,0 -1.364714,0.62232 -0.48038,0.61139 -0.48038,1.50664 z"
       style="font-style:normal;font-variant:normal;font-weight:normal;font-stretch:normal;font-size:25px;line-height:125%;font-family:'Roboto Slab';-inkscape-font-specification:'Roboto Slab';letter-spacing:0px;word-spacing:0px;fill:#3a5a79;fill-opacity:1;stroke:#3a5a79;stroke-width:0.89437824px;stroke-linecap:butt;stroke-linejoin:miter;stroke-opacity:1"
       id="path7096"
       inkscape:connector-curvature="0" />
    <path
       sodipodi:nodetypes="cccccccc"
       inkscape:connector-curvature="0"
       id="path6677-3"
       d="m 116.32727,967.73086 -22.198322,22.64307 c -18.167586,4.71705 -29.389886,14.53007 -37.744049,23.56297 l 12.101894,12.1619 12.212815,12.0508 c 9.021897,-8.3661 18.820034,-19.6014 23.513122,-37.7752 l 22.61367,-22.22819 c 5.14545,-4.86246 -4.47483,-16.20035 -10.49913,-10.41535 z"
       style="fill:none;fill-rule:evenodd;stroke:#3a5a79;stroke-width:1.34156728;stroke-linecap:butt;stroke-linejoin:miter;stroke-miterlimit:4;stroke-dasharray:none;stroke-opacity:1" />
    <path
       sodipodi:nodetypes="cc"
       inkscape:connector-curvature="0"
       id="path6694"
       d="m 94.062254,990.41671 10.150476,9.89349"
       style="fill:none;fill-rule:evenodd;stroke:#3a5a79;stroke-width:1.34156728;stroke-linecap:butt;stroke-linejoin:miter;stroke-miterlimit:4;stroke-dasharray:none;stroke-opacity:1" />
    <path
       inkscape:connector-curvature="0"
       id="path6700-9"
       d="m 116.65559,979.62698 a 1.8638288,1.8638288 0 0 1 -1.86383,1.86383 1.8638288,1.8638288 0 0 1 -1.86383,-1.86383 1.8638288,1.8638288 0 0 1 1.86383,-1.86383 1.8638288,1.8638288 0 0 1 1.86383,1.86383 z"
       style="opacity:1;fill:none;fill-opacity:1;fill-rule:nonzero;stroke:#3a5a79;stroke-width:1.34156728;stroke-linecap:round;stroke-linejoin:round;stroke-miterlimit:4;stroke-dasharray:none;stroke-dashoffset:0;stroke-opacity:1" />
    <path
       inkscape:connector-curvature="0"
       id="path6700-9-4"
       d="m 122.12602,973.94863 a 1.8638288,1.8638288 0 0 1 -1.86383,1.86383 1.8638288,1.8638288 0 0 1 -1.86383,-1.86383 1.8638288,1.8638288 0 0 1 1.86383,-1.86383 1.8638288,1.8638288 0 0 1 1.86383,1.86383 z"
       style="opacity:1;fill:none;fill-opacity:1;fill-rule:nonzero;stroke:#3a5a79;stroke-width:1.34156728;stroke-linecap:round;stroke-linejoin:round;stroke-miterlimit:4;stroke-dasharray:none;stroke-dashoffset:0;stroke-opacity:1" />
  </g>
</svg>
