<?xml version="1.0" encoding="UTF-8" standalone="no"?>
<!-- Created with Inkscape (http://www.inkscape.org/) -->

<svg
   xmlns:dc="http://purl.org/dc/elements/1.1/"
   xmlns:cc="http://creativecommons.org/ns#"
   xmlns:rdf="http://www.w3.org/1999/02/22-rdf-syntax-ns#"
   xmlns:svg="http://www.w3.org/2000/svg"
   xmlns="http://www.w3.org/2000/svg"
   xmlns:sodipodi="http://sodipodi.sourceforge.net/DTD/sodipodi-0.dtd"
   xmlns:inkscape="http://www.inkscape.org/namespaces/inkscape"
   width="155"
   height="155"
   viewBox="0 0 155 155"
   id="svg4379"
   version="1.1"
   inkscape:version="0.91 r13725"
   sodipodi:docname="optimisation.svg">
  <defs
     id="defs4381">
    <marker
       inkscape:stockid="Arrow2Mend"
       orient="auto"
       refY="0"
       refX="0"
       id="Arrow2Mend-3"
       style="overflow:visible"
       inkscape:isstock="true">
      <path
         id="path4536-6"
         style="fill:#000080;fill-opacity:1;fill-rule:evenodd;stroke:#000080;stroke-width:0.625;stroke-linejoin:round;stroke-opacity:1"
         d="M 8.7185878,4.0337352 -2.2072895,0.01601326 8.7185884,-4.0017078 c -1.7454984,2.3720609 -1.7354408,5.6174519 -6e-7,8.035443 z"
         transform="scale(-0.6,-0.6)"
         inkscape:connector-curvature="0" />
    </marker>
  </defs>
  <sodipodi:namedview
     id="base"
     pagecolor="#ffffff"
     bordercolor="#666666"
     borderopacity="1.0"
     inkscape:pageopacity="0.0"
     inkscape:pageshadow="2"
     inkscape:zoom="3.1021459"
     inkscape:cx="58.104245"
     inkscape:cy="21.490201"
     inkscape:document-units="px"
     inkscape:current-layer="layer1"
     showgrid="false"
     units="px"
     inkscape:window-width="1600"
     inkscape:window-height="872"
     inkscape:window-x="156"
     inkscape:window-y="1080"
     inkscape:window-maximized="1" />
  <metadata
     id="metadata4384">
    <rdf:RDF>
      <cc:Work
         rdf:about="">
        <dc:format>image/svg+xml</dc:format>
        <dc:type
           rdf:resource="http://purl.org/dc/dcmitype/StillImage" />
        <dc:title />
      </cc:Work>
    </rdf:RDF>
  </metadata>
  <g
     inkscape:label="Layer 1"
     inkscape:groupmode="layer"
     id="layer1"
     transform="translate(0,-897.36216)">
    <circle
       style="opacity:1;fill:none;fill-opacity:1;fill-rule:nonzero;stroke:#3a5a79;stroke-width:1.70671153;stroke-linecap:round;stroke-linejoin:round;stroke-miterlimit:4;stroke-dasharray:none;stroke-dashoffset:0;stroke-opacity:1"
       id="path4147-1-9-8-8-7-2"
       cx="77.539307"
       cy="974.82288"
       r="74.146645" />
    <path
       style="fill:none;fill-opacity:1;fill-rule:evenodd;stroke:#3a5a79;stroke-width:2.5;stroke-linecap:square;stroke-linejoin:miter;stroke-miterlimit:4;stroke-dasharray:none;stroke-opacity:1"
       d="m 68.596288,1034.6614 c 8.157484,-8.5667 -1.689822,-15.2665 -7.809883,-14.1367 -5.353579,1.3366 -6.331454,7.7593 -13.370013,12.6924 3.8095,0.7667 4.688313,3.0242 8.451193,-1.7635 1.991451,-2.4321 8.826249,-3.9604 7.387318,1.0684 -0.897468,2.9406 -1.839234,3.8914 -3.660602,3.7976 2.673641,1.6195 3.725216,2.2468 9.001987,-1.6582 z"
       id="path5645"
       inkscape:connector-curvature="0"
       sodipodi:nodetypes="ccccccc" />
    <g
       id="g5731"
       transform="matrix(-0.87069538,-0.49182269,-0.49182269,0.87069538,616.60491,176.04254)">
      <circle
         transform="matrix(0.86602541,-0.5,0.5,0.86602541,0,0)"
         r="6.3646479"
         cy="866.31293"
         cx="-453.58301"
         id="path5647"
         style="opacity:1;fill:none;fill-opacity:1;fill-rule:nonzero;stroke:#3a5a79;stroke-width:1.29999995;stroke-linecap:round;stroke-linejoin:bevel;stroke-miterlimit:4;stroke-dasharray:none;stroke-dashoffset:173.29718018;stroke-opacity:1" />
      <g
         transform="translate(0,-9.9995814)"
         id="g5727">
        <path
           style="fill:none;fill-rule:evenodd;stroke:#3a5a79;stroke-width:1.5;stroke-linecap:round;stroke-linejoin:bevel;stroke-miterlimit:4;stroke-dasharray:none;stroke-opacity:1"
           d="m 58.458052,1009.3814 13.410746,3.042 -8.143005,-24.34776 -8.808234,-1.69847 c -4.886549,-11.0435 -15.759369,-18.73961 -25.055854,-18.0034 -5.83988,9.05085 -4.492336,22.17309 2.618526,30.9576 l -2.933194,8.47743 17.014301,19.2259 4.070938,-13.135 c 1.505621,0.1981 3.080454,-0.6764 4.440136,-1.3459 1.25963,-0.8428 2.804415,-1.7694 3.38564,-3.1724 z"
           id="path5628-6"
           inkscape:connector-curvature="0"
           sodipodi:nodetypes="ccccccccccc" />
        <path
           style="opacity:1;fill:#3a5a79;fill-opacity:1;fill-rule:nonzero;stroke:#3a5a79;stroke-width:0.29632351;stroke-linecap:round;stroke-linejoin:bevel;stroke-miterlimit:4;stroke-dasharray:none;stroke-dashoffset:173.29718018;stroke-opacity:1"
           d="m 29.935921,71.500806 c -5.468108,9.167714 -4.002723,21.446715 2.436566,29.742764 0.657031,1.52325 -0.557111,3.11523 -0.871052,4.59404 -0.336735,1.58598 -1.550601,3.20425 -1.125214,4.86329 4.967457,5.95937 10.18653,11.73029 15.4212,17.46243 1.191252,0.44574 1.098145,-1.41842 1.515672,-2.11863 1.141905,-3.11533 1.735094,-6.45722 3.185171,-9.43113 0.883561,-0.75012 2.276471,-0.47946 3.242075,-1.19049 1.946285,-0.80869 3.372509,-2.39194 4.996751,-3.64347 3.896304,0.79497 7.783904,1.80412 11.704691,2.53941 1.150095,-0.4853 -0.1062,-1.87306 -0.146026,-2.72683 -2.236447,-6.77833 -4.422962,-13.577881 -6.821318,-20.299679 -1.31938,-0.829855 -3.094119,-0.735538 -4.589162,-1.163215 -1.368368,-0.369254 -2.944469,-0.357032 -4.1563,-1.03161 -1.44535,-2.41887 -2.641196,-5.024766 -4.520981,-7.170352 -4.833445,-5.860001 -11.871595,-10.708917 -19.732336,-10.573382 -0.199247,-0.06127 -0.359168,0.101644 -0.539737,0.146854 z m 10.559197,11.697122 c 4.317252,-0.197585 7.772959,4.885835 5.924689,8.828268 -1.184582,3.571401 -5.712077,5.284568 -9.015696,3.483226 -3.97403,-1.709973 -4.798921,-7.500314 -1.715792,-10.422076 1.222582,-1.351033 3.016213,-1.937408 4.806799,-1.889418 z"
           id="path5720"
           inkscape:connector-curvature="0"
           transform="translate(0,897.36216)" />
      </g>
    </g>
    <path
       style="opacity:1;fill:none;fill-opacity:1;fill-rule:nonzero;stroke:#3a5a79;stroke-width:3;stroke-linecap:round;stroke-linejoin:miter;stroke-miterlimit:4;stroke-dasharray:none;stroke-dashoffset:173.29718018;stroke-opacity:1"
       id="path5578"
       sodipodi:type="arc"
       sodipodi:cx="-75.973511"
       sodipodi:cy="973.68677"
       sodipodi:rx="41.762291"
       sodipodi:ry="41.762291"
       sodipodi:start="5.7872991"
       sodipodi:end="5.1692383"
       d="m -39.241597,953.8158 a 41.762291,41.762291 0 0 1 -11.4446,53.1071 41.762291,41.762291 0 0 1 -54.235733,-3.135 41.762291,41.762291 0 0 1 -5.24928,-54.07208 41.762291,41.762291 0 0 1 52.619995,-13.50849"
       sodipodi:open="true"
       transform="scale(-1,1)" />
    <path
       style="opacity:1;fill:none;fill-opacity:1;fill-rule:nonzero;stroke:#3a5a79;stroke-width:3;stroke-linecap:round;stroke-linejoin:miter;stroke-miterlimit:4;stroke-dasharray:none;stroke-dashoffset:173.29718018;stroke-opacity:1"
       id="path5578-3"
       sodipodi:type="arc"
       sodipodi:cx="-61.680473"
       sodipodi:cy="974.90009"
       sodipodi:rx="28.284142"
       sodipodi:ry="28.284142"
       sodipodi:start="5.602983"
       sodipodi:end="5.2920757"
       d="m -39.691095,957.11077 a 28.284142,28.284142 0 0 1 -2.546324,38.33099 28.284142,28.284142 0 0 1 -38.412981,0.43771 28.284142,28.284142 0 0 1 -3.419104,-38.26302 28.284142,28.284142 0 0 1 37.882005,-6.37985"
       sodipodi:open="true"
       transform="matrix(-0.99988427,0.01521329,0.01521329,0.99988427,0,0)" />
    <path
       style="fill:none;fill-rule:evenodd;stroke:#3a5a79;stroke-width:3;stroke-linecap:round;stroke-linejoin:miter;stroke-miterlimit:4;stroke-dasharray:none;stroke-opacity:1"
       d="m 40.96321,925.11492 12.45414,12.45414 0.10654,11.90049 -12.16151,0.15448 -12.45414,-12.45414 12.49264,0.17666 z"
       id="path5666-5"
       inkscape:connector-curvature="0"
       sodipodi:nodetypes="ccccccc" />
    <path
       sodipodi:nodetypes="cc"
       style="fill:none;fill-rule:evenodd;stroke:#3a5a79;stroke-width:3;stroke-linecap:round;stroke-linejoin:miter;stroke-miterlimit:4;stroke-dasharray:none;stroke-opacity:1"
       d="m 53.37994,949.28852 23.18034,23.26092"
       id="path5683"
       inkscape:connector-curvature="0" />
    <path
       style="opacity:1;fill:none;fill-opacity:1;fill-rule:nonzero;stroke:#3a5a79;stroke-width:3;stroke-linecap:round;stroke-linejoin:bevel;stroke-miterlimit:4;stroke-dasharray:none;stroke-dashoffset:173.29718018;stroke-opacity:1"
       id="path4239"
       sodipodi:type="arc"
       sodipodi:cx="-82.355782"
       sodipodi:cy="973.37042"
       sodipodi:rx="12.81214"
       sodipodi:ry="12.81214"
       sodipodi:start="5.7345391"
       sodipodi:end="5.1011353"
       d="m -71.424062,966.68847 a 12.81214,12.81214 0 0 1 -2.609548,16.42323 12.81214,12.81214 0 0 1 -16.629245,0.0129 12.81214,12.81214 0 0 1 -2.634983,-16.41916 12.81214,12.81214 0 0 1 15.798224,-5.19115"
       sodipodi:open="true"
       transform="matrix(-0.99998194,-0.00600956,-0.00600956,0.99998194,0,0)" />
  </g>
</svg>
