<?xml version="1.0" encoding="UTF-8" standalone="no"?>
<!-- Created with Inkscape (http://www.inkscape.org/) -->

<svg
   xmlns:dc="http://purl.org/dc/elements/1.1/"
   xmlns:cc="http://creativecommons.org/ns#"
   xmlns:rdf="http://www.w3.org/1999/02/22-rdf-syntax-ns#"
   xmlns:svg="http://www.w3.org/2000/svg"
   xmlns="http://www.w3.org/2000/svg"
   xmlns:sodipodi="http://sodipodi.sourceforge.net/DTD/sodipodi-0.dtd"
   xmlns:inkscape="http://www.inkscape.org/namespaces/inkscape"
   width="155"
   height="155"
   viewBox="0 0 155 155"
   id="svg4379"
   version="1.1"
   inkscape:version="0.91 r13725"
   sodipodi:docname="simulation.svg">
  <defs
     id="defs4381">
    <marker
       inkscape:stockid="Arrow2Mend"
       orient="auto"
       refY="0"
       refX="0"
       id="Arrow2Mend-3"
       style="overflow:visible"
       inkscape:isstock="true">
      <path
         id="path4536-6"
         style="fill:#000080;fill-opacity:1;fill-rule:evenodd;stroke:#000080;stroke-width:0.625;stroke-linejoin:round;stroke-opacity:1"
         d="M 8.7185878,4.0337352 -2.2072895,0.01601326 8.7185884,-4.0017078 c -1.7454984,2.3720609 -1.7354408,5.6174519 -6e-7,8.035443 z"
         transform="scale(-0.6,-0.6)"
         inkscape:connector-curvature="0" />
    </marker>
  </defs>
  <sodipodi:namedview
     id="base"
     pagecolor="#ffffff"
     bordercolor="#666666"
     borderopacity="1.0"
     inkscape:pageopacity="0.0"
     inkscape:pageshadow="2"
     inkscape:zoom="4.3870968"
     inkscape:cx="35.37533"
     inkscape:cy="88.258379"
     inkscape:document-units="px"
     inkscape:current-layer="layer1"
     showgrid="false"
     units="px"
     inkscape:window-width="1600"
     inkscape:window-height="872"
     inkscape:window-x="156"
     inkscape:window-y="1080"
     inkscape:window-maximized="1" />
  <metadata
     id="metadata4384">
    <rdf:RDF>
      <cc:Work
         rdf:about="">
        <dc:format>image/svg+xml</dc:format>
        <dc:type
           rdf:resource="http://purl.org/dc/dcmitype/StillImage" />
        <dc:title />
      </cc:Work>
    </rdf:RDF>
  </metadata>
  <g
     inkscape:label="Layer 1"
     inkscape:groupmode="layer"
     id="layer1"
     transform="translate(0,-897.36216)">
    <circle
       style="opacity:1;fill:none;fill-opacity:1;fill-rule:nonzero;stroke:#3a5a79;stroke-width:1.7;stroke-linecap:round;stroke-linejoin:round;stroke-miterlimit:4;stroke-dasharray:none;stroke-dashoffset:0;stroke-opacity:1"
       id="path4147-1-9-8-8-7-2"
       cx="77.244377"
       cy="975.1178"
       r="73.855072" />
    <path
       inkscape:connector-curvature="0"
       style="opacity:1;fill:none;fill-opacity:1;fill-rule:nonzero;stroke:#3a5a79;stroke-width:3;stroke-linecap:round;stroke-linejoin:round;stroke-miterlimit:4;stroke-dasharray:none;stroke-dashoffset:0;stroke-opacity:1"
       d="m 93.685206,981.41359 a 7.9576868,7.9576868 0 0 0 7.957624,7.9577 7.9576868,7.9576868 0 0 0 7.95784,-7.95778 7.9576868,7.9576868 0 0 0 -7.95783,-7.95766 7.9576868,7.9576868 0 0 0 -7.957634,7.95774 z"
       id="path6624-5" />
    <path
       style="fill:none;fill-rule:evenodd;stroke:#3a5a79;stroke-width:3;stroke-linecap:butt;stroke-linejoin:round;stroke-miterlimit:4;stroke-dasharray:none;stroke-opacity:1"
       d="m 94.354748,1004.3916 2.347427,7.4567 10.356405,-0.1382 2.31656,-7.2293 3.54948,-1.4069 7.01936,3.441 7.04052,-7.59638 -3.6303,-6.54221 1.56235,-3.36526 7.42431,-2.44766 -0.2775,-10.3536 -7.25989,-2.21898 -1.45442,-3.53032 3.34606,-7.06499 -7.6905,-6.9376 -6.61177,3.6531 -3.46178,-1.67538 -2.34741,-7.45673 -10.356404,0.13809 -2.316571,7.2295 -3.549437,1.40668 -7.019384,-3.44087 -7.040528,7.59637 3.630288,6.54221 -1.562344,3.36526 -7.424254,2.44765 0.27745,10.35369 7.259855,2.21898 1.454485,3.53024 -3.34605,7.06499 7.690421,6.93752 6.611805,-3.6529 z"
       id="path6575-8-2"
       inkscape:connector-curvature="0"
       sodipodi:nodetypes="ccccccccccccccccccccccccccccccccc" />
    <path
       sodipodi:nodetypes="ccccccccccccccccccccccccccccccccc"
       inkscape:connector-curvature="0"
       id="path6575-8-2-6"
       d="m 34.212524,973.75861 -0.689096,6.55134 8.050881,3.37021 4.217565,-4.80967 3.215782,0.10415 4.270034,5.01617 7.992001,-3.50746 -0.609424,-6.27539 2.337366,-2.07647 6.560029,0.60077 3.261577,-8.09547 -4.86619,-4.15245 0.0611,-3.21689 4.958135,-4.33719 -3.614823,-7.94404 -6.336738,0.60366 -2.113123,-2.45713 0.689096,-6.55134 -8.050848,-3.3703 -4.21762,4.80984 -3.215695,-0.10431 -4.270057,-5.01621 -7.992042,3.50759 0.609452,6.2753 -2.337396,2.07655 -6.559971,-0.60085 -3.261615,8.09555 4.866164,4.15245 -0.06104,3.21681 -4.958145,4.33726 3.614788,7.94398 6.336706,-0.60366 z"
       style="fill:none;fill-rule:evenodd;stroke:#3a5a79;stroke-width:2.5;stroke-linecap:butt;stroke-linejoin:round;stroke-miterlimit:4;stroke-dasharray:none;stroke-opacity:1" />
    <path
       id="path6624-5-7"
       d="m 40.97852,957.16108 a 6.7057259,6.7057259 0 0 0 5.29698,7.86613 6.7057259,6.7057259 0 0 0 7.866175,-5.2971 6.7057259,6.7057259 0 0 0 -5.297144,-7.86609 6.7057259,6.7057259 0 0 0 -7.866011,5.29706 z"
       style="opacity:1;fill:none;fill-opacity:1;fill-rule:nonzero;stroke:#3a5a79;stroke-width:2.5;stroke-linecap:round;stroke-linejoin:round;stroke-miterlimit:4;stroke-dasharray:none;stroke-dashoffset:0;stroke-opacity:1"
       inkscape:connector-curvature="0" />
    <path
       sodipodi:nodetypes="ccccccccccccccccccccccccccccccccc"
       inkscape:connector-curvature="0"
       id="path6575-8-2-6-3"
       d="m 49.846506,1011.4605 -0.402371,3.8254 4.70098,1.9679 2.462671,-2.8085 1.877723,0.061 2.493326,2.9291 4.666598,-2.0481 -0.355861,-3.6643 1.364826,-1.2124 3.830454,0.3508 1.904461,-4.7271 -2.841408,-2.4246 0.03568,-1.8784 2.895099,-2.53251 -2.110727,-4.63857 -3.700085,0.35247 -1.233872,-1.43477 0.402371,-3.82537 -4.700959,-1.96791 -2.462713,2.80847 -1.877673,-0.0609 -2.493333,-2.92905 -4.666628,2.04813 0.355869,3.66423 -1.364826,1.21249 -3.830425,-0.35082 -1.904483,4.72709 2.841386,2.42462 -0.03564,1.8783 -2.895099,2.5326 2.110698,4.6385 3.700063,-0.3524 z"
       style="fill:none;fill-rule:evenodd;stroke:#3a5a79;stroke-width:2;stroke-linecap:butt;stroke-linejoin:round;stroke-miterlimit:4;stroke-dasharray:none;stroke-opacity:1" />
    <path
       id="path6624-5-7-5"
       d="m 53.797225,1001.769 a 3.9155361,3.9155361 0 0 0 3.092959,4.5932 3.9155361,3.9155361 0 0 0 4.59314,-3.0931 3.9155361,3.9155361 0 0 0 -3.09306,-4.59307 3.9155361,3.9155361 0 0 0 -4.593039,3.09297 z"
       style="opacity:1;fill:none;fill-opacity:1;fill-rule:nonzero;stroke:#3a5a79;stroke-width:2;stroke-linecap:round;stroke-linejoin:round;stroke-miterlimit:4;stroke-dasharray:none;stroke-dashoffset:0;stroke-opacity:1"
       inkscape:connector-curvature="0" />
  </g>
</svg>
